<svg xmlns="http://www.w3.org/2000/svg" width="512" height="512">
<path style="fill:#ffffff; stroke:none;" d="M0 0L0 53L1 53C4.44703 27.4226 27.4226 4.44705 53 1L36 0L0 0z"/>
<path style="fill:#010101; stroke:none;" d="M53 0.463745C11.8281 7.7388 -11.5159 52.8449 4.87268 91C12.6693 109.152 29.3432 122.343 43 136L115 208L151 244C153.769 246.769 161.984 252.465 160.793 257C159.628 261.439 153.136 265.864 150 269L122 297L41 378C25.2432 393.757 7.23134 408.515 1.47839 431C-14.2495 492.473 58.9038 535.571 107 497.334C121.086 486.136 133.281 471.719 146 459L219 386L246 359C248.479 356.522 252.903 350.131 257 351.207C261.439 352.372 265.864 358.864 269 362L296 389L377 470C402.258 495.258 426.255 519.839 465 510.105C503.103 500.533 522.275 456.265 507.127 421C499.331 402.848 482.657 389.657 469 376L396 303L361 268C358.231 265.231 350.016 259.535 351.207 255C352.372 250.561 358.864 246.136 362 243L390 215L471 134C486.757 118.243 504.769 103.485 510.522 81C526.438 18.792 451.926 -23.8355 404 15.4645C390.382 26.6313 378.45 40.5502 366 53L293 126L266 153C263.521 155.478 259.097 161.869 255 160.793C250.882 159.712 246.9 153.9 244 151L217 124L132 39C109.587 16.5866 87.5683 -5.64447 53 0.463745z"/>
<path style=" stroke:none;" d="M76 0L76 1C97.5414 2.88074 112.759 20.759 127 35L213 121L244 152C246.803 154.803 251.626 161.793 256 161.793C260.374 161.793 265.197 154.803 268 152L299 121L385 35C399.196 20.8043 414.526 2.87485 436 1L404 0L331 0L76 0M459 0L459 1C484.577 4.44705 507.553 27.4225 511 53L512 53L512 0L459 0M60 29.4391C29.9023 34.167 21.0979 68.1381 39.4398 90C52.2873 105.313 67.8676 118.868 82 133L162 213L190 241C195.121 246.13 200.495 251.072 198.852 259C197.647 264.811 191.987 269.013 188 273L162 299L63 398C44.9372 416.063 16.5586 439.102 35.1049 467C48.1221 486.581 74.4877 486.051 91 471.711C134.03 434.342 172.692 390.308 213 350L242 321.001C247.044 315.984 252.322 311.097 260 313.383C265.285 314.958 269.245 320.245 273 324L299 350L394 445C411.563 462.563 429.783 488.494 458 480.841C482.478 474.202 489.288 444.05 474.957 425C462.848 408.905 446.226 395.226 432 381L349 298L321.001 270C315.819 264.79 310.557 258.877 313.718 251C317.619 241.275 330.68 232.32 338 225L395 168L443 120C456.817 106.183 478.15 91.2084 482.192 71C487.988 42.0262 456.52 21.1153 431 33.3271C414.442 41.2505 400.812 60.1882 388 73L302 159L272 189C266.594 194.404 261.407 200.338 253 198.655C247.141 197.482 243.012 192.011 239 188L214 163L117 66C102.057 51.0567 84.2083 25.6363 60 29.4391M0 76L0 436L1 436C2.87482 414.526 20.8043 399.196 35 385L121 299L152 268C154.803 265.197 161.793 260.374 161.793 256C161.793 251.366 153.985 245.985 151 243L116 208L48 140C35.0086 127.009 19.6875 114.538 9.6983 99C5.00272 91.696 3.67386 83.583 0 76M511 76C509.125 97.4739 491.196 112.804 477 127L391 213L360 244C357.197 246.803 350.207 251.626 350.207 256C350.207 260.374 357.197 265.197 360 268L391 299L477 385C491.196 399.196 509.125 414.526 511 436L512 436L512 181L512 108L511 76M76 511L76 512L436 512C428.417 508.326 420.304 506.997 413 502.302C397.462 492.313 384.991 476.991 372 464L304 396L269 361C266.015 358.015 260.634 350.207 256 350.207C251.626 350.207 246.803 357.197 244 360L213 391L127 477C112.759 491.241 97.5414 509.119 76 511M511 458C508.904 483.66 483.649 508.905 458 511L458 512L512 512L512 476L511 458M0 459L0 512L53 512L53 511C33.7784 508.41 16.4954 494.819 7.3125 478C4.00586 471.944 3.18242 464.942 0 459z"/>
</svg>