<svg xmlns="http://www.w3.org/2000/svg" viewBox="0 0 512 512" fill="rgba(255,255,255,1)">
<path d="M338,54.63H174c-62.72,0-114,51.32-114,114V343.33c0,62.72,51.32,114,114,114H338c62.72,0,114-51.32,114-114V168.67C452,105.94,400.68,54.63,338,54.63Zm83.91,288.71A84.24,84.24,0,0,1,338,427.24H174a84.24,84.24,0,0,1-83.91-83.91V168.67A84.24,84.24,0,0,1,174,84.76H338a84.24,84.24,0,0,1,83.91,83.91Z"></path><path d="M255.77,148.18A107.94,107.94,0,1,0,363.71,256.13,107.94,107.94,0,0,0,255.77,148.18Zm-.52,178.71a70.68,70.68,0,1,1,70.68-70.68A70.68,70.68,0,0,1,255.25,326.9Z"></path><circle cx="365.44" cy="146.5" r="25.56"></circle></svg>