<svg xmlns="http://www.w3.org/2000/svg" version="1.0" width="2048.000000pt" height="2048.000000pt" viewBox="0 0 2048.000000 2048.000000" preserveAspectRatio="xMidYMid meet">

<g transform="translate(0.000000,2048.000000) scale(0.100000,-0.100000)" fill="#000000" stroke="none">
<path d="M3135 14658 c-2 -7 -16 -58 -29 -114 -14 -55 -45 -163 -70 -240 -25 -76 -59 -194 -76 -262 -30 -121 -31 -124 -114 -235 -183 -248 -351 -531 -471 -797 -149 -329 -201 -580 -147 -702 31 -71 97 -97 161 -63 49 25 136 131 182 222 24 49 82 202 129 342 72 212 89 255 105 256 11 2 61 17 111 34 158 54 301 39 491 -49 45 -21 103 -53 130 -71 98 -67 243 -224 229 -248 -3 -4 -25 -15 -48 -24 -524 -194 -673 -256 -853 -355 -398 -219 -697 -517 -761 -757 -28 -102 -8 -186 61 -263 83 -92 183 -132 333 -132 295 0 637 182 967 514 150 151 240 271 334 447 83 156 113 325 81 457 -7 30 -9 57 -4 62 5 4 140 60 299 123 359 142 445 181 445 201 0 31 2 32 -450 -132 -91 -33 -203 -74 -250 -92 -78 -29 -86 -30 -95 -14 -28 48 -118 154 -162 190 -112 95 -262 171 -418 215 -86 24 -220 25 -294 3 -29 -8 -55 -13 -58 -11 -2 3 11 27 30 54 90 127 221 378 271 519 19 54 53 147 75 206 52 141 74 239 61 272 -22 58 -94 23 -232 -112 -38 -37 -68 -62 -68 -56 0 16 66 279 95 379 30 104 44 228 26 239 -6 4 -13 1 -16 -6z m161 -520 c-9 -88 -128 -430 -199 -573 -33 -66 -83 -156 -112 -200 -76 -115 -193 -245 -173 -193 11 28 101 374 137 529 35 145 41 161 86 225 50 70 243 274 259 274 5 0 6 -28 2 -62z m-477 -624 c-92 -330 -163 -536 -279 -814 -72 -174 -152 -310 -181 -310 -18 0 -8 110 20 221 37 149 128 375 251 627 97 198 208 398 216 390 2 -3 -10 -54 -27 -114z m1008 -914 c48 -184 -51 -434 -281 -708 -194 -230 -400 -385 -665 -496 -170 -72 -255 -91 -401 -91 -117 0 -128 2 -176 27 -96 50 -141 136 -123 230 10 58 22 85 60 149 167 274 523 526 1044 737 435 176 501 202 515 199 8 -1 20 -22 27 -47z"/>
<path d="M13115 14384 c-93 -21 -238 -75 -355 -134 -327 -164 -576 -426 -675 -709 -74 -210 -72 -369 6 -523 63 -125 186 -226 469 -388 80 -46 178 -106 219 -134 82 -56 204 -173 198 -190 -2 -6 -37 -28 -78 -50 -576 -298 -927 -630 -979 -924 -15 -85 -3 -138 46 -192 47 -52 104 -70 224 -70 111 0 203 20 325 72 239 101 413 293 526 581 63 160 81 256 77 402 l-3 110 470 237 c258 131 486 249 507 263 21 14 38 20 38 14 0 -6 -38 -129 -84 -272 -123 -384 -153 -529 -144 -699 8 -133 44 -168 133 -129 48 21 169 136 180 171 11 36 -10 48 -42 22 -138 -111 -183 -133 -197 -96 -11 30 -6 170 10 265 18 106 111 422 177 605 48 132 57 150 98 210 15 23 96 160 179 305 83 145 157 269 163 275 13 12 42 15 587 65 396 36 441 45 427 84 -6 13 -16 15 -49 11 -24 -3 -153 -13 -288 -22 -135 -8 -327 -21 -428 -27 -101 -7 -185 -11 -187 -9 -2 2 25 58 60 125 166 318 211 467 140 467 -51 0 -154 -129 -240 -300 -20 -41 -68 -129 -106 -196 l-69 -121 -117 -12 c-127 -14 -562 -68 -813 -101 -151 -20 -200 -20 -200 0 0 6 -7 10 -15 10 -8 0 -15 -9 -15 -20 0 -19 6 -22 71 -34 27 -6 874 54 997 70 27 3 42 1 42 -6 0 -6 -38 -95 -83 -198 -46 -103 -96 -219 -112 -259 l-28 -71 -76 -40 c-42 -22 -139 -69 -216 -104 -77 -36 -294 -136 -483 -223 -188 -87 -344 -156 -345 -154 -103 138 -196 225 -340 317 -395 254 -461 304 -515 389 -75 119 -82 267 -23 443 95 282 304 506 620 665 440 220 692 164 694 -155 0 -62 -5 -89 -31 -152 -49 -119 -113 -242 -191 -363 -45 -70 -71 -120 -71 -138 0 -18 5 -27 13 -25 15 5 127 167 211 308 139 230 183 346 173 455 -13 136 -66 224 -168 280 -47 26 -66 30 -149 32 -59 1 -122 -3 -165 -13z m1747 -350 c-16 -84 -286 -535 -324 -542 -10 -2 -18 3 -18 10 0 43 208 427 282 520 36 46 68 52 60 12z m-372 -641 c0 -5 -10 -21 -21 -38 -12 -17 -18 -21 -14 -10 4 11 10 28 12 38 5 17 23 24 23 10z m-1443 -1230 c12 -41 7 -219 -7 -288 -44 -219 -208 -481 -371 -592 -211 -145 -537 -189 -648 -88 -33 31 -36 38 -36 87 1 29 9 74 19 98 66 166 297 388 599 574 106 66 415 235 429 236 4 0 11 -12 15 -27z"/>
<path d="M9222 14129 c-94 -37 -198 -193 -297 -444 -26 -66 -50 -123 -54 -127 -3 -3 -121 -14 -261 -23 -267 -17 -464 -36 -615 -59 -49 -8 -120 -17 -157 -21 -38 -4 -68 -10 -68 -15 0 -27 259 -35 681 -20 203 7 371 11 374 8 5 -4 -29 -107 -125 -378 -28 -80 -55 -161 -59 -180 -5 -19 -45 -147 -89 -285 -102 -315 -112 -355 -112 -488 0 -119 10 -156 56 -199 70 -65 216 -97 283 -61 19 10 32 22 30 27 -2 5 -40 10 -84 10 -98 1 -167 31 -200 86 -37 63 -18 226 54 479 119 413 127 435 189 518 73 97 173 258 242 386 37 69 58 98 73 101 12 3 92 10 177 16 220 16 612 57 767 79 196 29 244 48 229 87 -5 14 -16 16 -64 10 -159 -19 -596 -48 -1012 -69 -26 -1 -44 2 -43 8 1 6 26 66 56 135 113 259 141 382 95 414 -25 18 -33 19 -66 5z m33 -86 c-10 -58 -56 -160 -147 -329 l-83 -154 -43 0 c-52 0 -53 -8 21 152 88 190 136 274 184 322 57 58 78 61 68 9z m-305 -617 c0 -16 -13 -40 -93 -174 -27 -46 -51 -81 -53 -79 -8 8 79 242 94 255 21 16 52 15 52 -2z"/>
<path d="M17013 13953 c-19 -21 -52 -65 -73 -98 -53 -79 -176 -354 -245 -543 -46 -126 -114 -262 -132 -262 -2 0 -18 10 -34 23 -113 83 -344 -85 -421 -307 -24 -70 -24 -177 0 -199 49 -44 121 -2 291 171 69 69 126 121 129 114 3 -11 -66 -206 -158 -442 -147 -379 -216 -671 -180 -764 5 -14 21 -33 35 -42 46 -30 107 -20 275 44 85 32 176 67 202 76 48 18 65 32 54 44 -8 8 -78 -11 -279 -75 -188 -59 -221 -64 -238 -31 -37 68 37 354 206 803 31 83 95 254 143 380 48 127 101 250 118 275 17 25 66 95 108 155 126 177 295 547 299 652 3 73 -45 85 -100 26z m-128 -393 c-21 -44 -40 -79 -42 -77 -2 2 13 40 34 85 20 45 38 80 41 77 2 -2 -13 -40 -33 -85z m-405 -535 c7 -9 13 -29 12 -46 -1 -49 -214 -294 -309 -357 -90 -58 -10 194 99 313 77 85 168 126 198 90z"/>
<path d="M17044 13205 c-44 -67 50 -155 114 -108 66 49 23 133 -67 133 -21 0 -35 -7 -47 -25z"/>
<path d="M9344 13202 c-19 -13 -73 -98 -99 -158 -64 -145 -85 -326 -45 -391 41 -68 140 -85 234 -39 107 52 215 160 310 309 20 31 39 57 42 57 14 0 -24 -449 -51 -601 -8 -46 -15 -87 -15 -91 0 -5 -48 -54 -106 -110 -267 -258 -443 -557 -415 -703 21 -109 82 -140 180 -91 141 72 267 316 357 690 l29 120 105 94 c150 136 344 299 457 385 116 88 131 103 115 119 -27 27 -230 -108 -497 -327 -77 -63 -144 -115 -148 -115 -5 0 -6 8 -3 18 15 50 39 327 40 463 1 160 -5 189 -41 189 -8 0 -76 -60 -152 -132 -157 -152 -227 -199 -306 -206 -71 -6 -79 10 -73 128 5 80 41 206 99 347 14 34 4 59 -17 45z m336 -1110 c0 -4 -12 -53 -26 -107 -51 -198 -148 -419 -219 -503 -42 -49 -112 -80 -143 -63 -49 26 -40 88 34 231 63 120 138 225 256 357 78 87 98 104 98 85z"/>
<path d="M4844 13122 c-88 -35 -145 -74 -209 -143 -104 -110 -155 -211 -155 -304 0 -62 26 -101 84 -129 44 -21 195 -21 291 -1 132 28 495 230 495 276 0 10 -6 19 -13 19 -7 0 -66 -29 -132 -65 -308 -167 -370 -189 -516 -183 -98 3 -144 25 -144 68 0 19 9 25 54 36 178 46 441 266 441 369 0 82 -77 105 -196 57z m87 -80 c-15 -28 -100 -104 -167 -150 -88 -59 -166 -104 -171 -98 -10 10 38 74 101 134 88 85 268 171 237 114z"/>
<path d="M7411 13084 c-66 -56 -143 -189 -191 -333 -38 -114 -39 -172 -4 -208 56 -56 147 -4 314 182 103 114 182 185 238 214 28 15 28 6 1 -61 -64 -163 -73 -231 -35 -275 22 -25 30 -28 83 -27 105 2 227 54 405 173 105 70 136 97 125 107 -5 6 -87 -42 -243 -141 -116 -74 -200 -105 -289 -105 -28 0 -56 5 -63 12 -26 26 -8 117 49 256 27 68 30 83 19 96 -7 9 -22 16 -35 16 -32 0 -132 -68 -219 -148 -82 -76 -253 -212 -267 -212 -12 0 -12 -2 12 76 28 91 86 215 138 295 23 35 40 73 39 84 -4 30 -41 30 -77 -1z"/>
<path d="M5871 13004 c-218 -59 -400 -261 -348 -387 31 -72 128 -88 232 -38 62 30 109 62 240 169 42 34 90 69 106 77 27 15 29 14 29 -4 0 -11 -7 -46 -15 -78 -26 -98 -21 -138 23 -184 87 -94 304 -92 465 5 63 38 343 298 352 327 9 27 -3 41 -24 29 -10 -5 -78 -60 -152 -121 -251 -210 -318 -243 -496 -244 -104 0 -113 2 -137 24 -34 32 -34 71 0 183 27 87 27 88 8 109 -16 18 -27 20 -66 16 l-47 -6 5 28 c8 40 -19 86 -57 100 -40 14 -51 13 -118 -5z m117 -56 c7 -7 12 -25 12 -40 0 -15 5 -28 10 -28 20 0 9 -17 -17 -29 -16 -7 -68 -39 -118 -71 -108 -69 -207 -120 -235 -120 -46 0 -10 101 63 174 43 43 136 102 185 116 41 12 87 11 100 -2z"/>
<path d="M14859 12968 c-91 -95 -189 -312 -189 -420 0 -74 20 -98 83 -98 71 0 136 47 309 221 145 146 188 180 188 147 0 -7 -11 -55 -25 -106 -14 -51 -25 -108 -25 -126 0 -73 77 -117 170 -97 159 34 364 150 347 195 -5 12 -21 7 -89 -28 -110 -58 -271 -117 -320 -118 -77 -1 -89 49 -50 210 12 46 18 90 16 97 -17 43 -71 17 -230 -111 -148 -120 -253 -194 -276 -194 -16 0 -18 5 -12 38 10 57 61 197 110 301 24 51 41 97 38 102 -9 14 -22 10 -45 -13z"/>
<path d="M18343 12919 c-142 -70 -285 -371 -214 -446 61 -64 159 -1 294 190 51 73 65 87 82 82 60 -19 126 -17 226 9 160 42 270 102 256 140 -5 12 -20 8 -84 -20 -148 -64 -295 -89 -399 -70 l-42 8 -57 -78 c-101 -137 -177 -214 -212 -214 -32 0 -2 128 53 231 33 59 118 142 142 137 10 -2 19 -16 22 -33 8 -44 34 -39 38 7 2 27 -3 43 -17 57 -26 26 -36 26 -88 0z"/>
<path d="M17060 12885 c-21 -25 -8 -210 17 -260 63 -121 170 -151 364 -101 161 41 450 138 456 153 9 24 -5 27 -60 14 -338 -81 -497 -112 -549 -109 -92 7 -120 43 -138 184 -7 49 -18 99 -26 112 -17 25 -46 29 -64 7z"/>
<path d="M10230 11418 c-33 -126 -56 -203 -96 -316 -25 -69 -81 -241 -124 -382 -44 -141 -112 -349 -151 -463 l-72 -207 -71 -20 c-328 -95 -464 -152 -593 -249 -128 -97 -203 -200 -203 -283 0 -39 5 -50 30 -72 18 -15 49 -27 78 -31 188 -26 268 -85 307 -230 21 -75 16 -211 -10 -307 -9 -32 -17 -75 -20 -95 -2 -21 -45 -157 -95 -302 -90 -263 -99 -310 -51 -267 20 18 59 107 211 479 125 304 280 752 376 1080 30 104 59 197 64 206 11 22 236 79 455 116 278 47 613 56 601 16 -65 -213 -217 -688 -251 -786 -55 -155 -201 -517 -256 -634 -40 -86 -40 -113 -1 -92 24 13 78 115 207 395 129 280 154 343 240 595 40 119 96 282 125 364 59 165 58 164 130 108 49 -39 71 -104 68 -207 -3 -69 -7 -87 -31 -123 -44 -66 -12 -86 46 -27 43 43 61 107 61 216 -1 142 -35 209 -129 255 -30 15 -55 29 -55 32 0 2 16 59 35 126 88 300 170 667 187 827 10 97 9 120 -3 144 -24 51 -36 42 -43 -33 -4 -38 -16 -106 -27 -151 -22 -92 -205 -715 -242 -825 l-24 -70 -139 3 c-238 6 -441 -20 -735 -94 -97 -24 -179 -44 -182 -44 -7 0 75 244 152 448 63 168 219 657 246 772 17 74 20 156 5 165 -5 3 -14 -14 -20 -37z m-487 -1510 c-29 -100 -125 -363 -223 -613 -53 -137 -101 -261 -106 -275 -6 -19 -10 -3 -15 65 -7 117 -41 195 -113 264 -62 57 -105 81 -203 110 -40 12 -73 24 -73 27 0 35 167 206 266 273 83 55 171 95 339 152 77 26 141 48 142 48 1 1 -5 -23 -14 -51z"/>
<path d="M5669 10840 c-22 -23 -61 -86 -88 -143 -51 -106 -171 -441 -261 -727 -28 -91 -69 -221 -91 -290 -21 -69 -39 -129 -39 -133 0 -22 35 8 140 122 124 135 247 234 311 251 34 9 45 8 65 -5 34 -22 44 -54 44 -135 l0 -68 -47 -28 c-173 -99 -353 -313 -353 -418 0 -47 37 -76 96 -76 36 0 49 6 82 38 53 52 175 260 208 359 l28 81 146 80 c80 44 187 101 238 127 87 44 111 65 77 65 -21 0 -219 -90 -342 -156 l-103 -54 7 60 c17 163 -93 231 -244 151 -74 -39 -158 -110 -219 -182 -75 -88 -75 -88 -63 -43 36 132 120 397 181 574 126 365 175 476 241 542 45 44 46 22 7 -110 -67 -228 -148 -409 -261 -590 -62 -98 -69 -119 -44 -129 21 -8 49 19 105 102 113 167 215 421 247 614 25 155 2 195 -68 121z m55 -1222 c-37 -123 -127 -271 -208 -346 -48 -45 -83 -53 -110 -27 -41 41 77 212 229 332 44 35 83 63 88 63 5 0 5 -10 1 -22z"/>
<path d="M6547 10202 c-32 -33 -127 -232 -156 -326 -36 -118 -23 -248 27 -275 33 -17 99 -13 143 10 56 28 112 82 227 216 53 63 98 109 99 101 2 -7 -14 -128 -35 -268 l-38 -256 -130 -129 c-312 -310 -450 -598 -350 -730 50 -65 122 -83 182 -46 47 29 138 146 183 237 44 88 92 243 156 499 l42 170 199 167 c246 208 364 315 364 334 0 8 -3 14 -6 14 -3 0 -45 -33 -92 -73 -48 -40 -170 -140 -271 -221 -178 -144 -184 -148 -178 -115 42 227 67 500 47 524 -30 36 -55 19 -189 -135 -136 -155 -221 -232 -280 -251 -47 -16 -63 4 -69 81 -6 78 29 192 109 355 32 66 59 125 59 132 0 20 -14 15 -43 -15z m228 -1038 c-35 -170 -101 -396 -135 -469 -49 -103 -157 -186 -215 -166 -28 11 -55 68 -55 118 0 112 53 243 147 368 78 103 274 304 280 287 3 -7 -7 -69 -22 -138z"/>
<path d="M12945 10107 c-8 -13 -47 -120 -86 -236 -76 -232 -86 -296 -42 -296 12 0 81 47 163 113 78 61 148 112 155 112 15 0 19 -9 35 -85 23 -102 67 -115 222 -65 103 33 158 62 158 84 0 25 -11 25 -110 -1 -121 -30 -152 -28 -163 12 -22 75 -44 119 -68 138 -32 23 -95 25 -136 3 -41 -20 -129 -102 -175 -160 -48 -60 -48 -59 28 173 53 161 63 214 44 226 -5 3 -16 -5 -25 -18z"/>
<path d="M14040 10048 c-22 -46 -51 -128 -65 -183 -79 -323 -61 -361 100 -211 89 82 177 146 201 146 8 0 15 -25 20 -72 6 -64 11 -77 40 -105 29 -30 38 -33 92 -33 51 0 72 6 139 41 103 55 253 152 283 184 44 47 9 46 -65 -2 -38 -25 -108 -64 -153 -86 -70 -34 -97 -41 -162 -45 -51 -3 -80 -1 -84 7 -4 6 -10 43 -13 82 -8 92 -35 129 -94 129 -49 0 -100 -26 -174 -85 -48 -40 -55 -43 -50 -23 2 13 19 82 36 155 33 142 34 176 6 181 -13 3 -27 -16 -57 -80z"/>
<path d="M11670 9968 c-25 -12 -77 -54 -115 -93 -110 -110 -153 -217 -105 -265 48 -48 136 -6 338 164 57 47 107 86 112 86 14 0 12 -56 -6 -150 -18 -96 -13 -128 24 -163 53 -50 154 -56 254 -14 56 23 294 184 321 217 24 28 27 60 6 60 -5 0 -69 -31 -143 -70 -142 -75 -251 -110 -341 -110 -74 0 -79 9 -72 127 3 55 1 105 -4 115 -12 22 -56 24 -84 4 -19 -13 -20 -12 -17 25 8 80 -73 113 -168 67z m118 -45 c5 -10 12 -32 15 -50 6 -29 2 -34 -71 -91 -147 -113 -231 -159 -246 -134 -16 26 46 135 120 209 74 73 162 105 182 66z"/>
<path d="M15260 9921 c-117 -36 -230 -159 -230 -251 0 -110 92 -107 264 10 41 27 77 50 79 50 3 0 7 -29 9 -64 4 -74 20 -98 83 -127 58 -27 150 -25 241 6 154 52 375 179 359 206 -3 5 -49 -14 -101 -40 -52 -27 -134 -64 -182 -82 -77 -29 -99 -33 -193 -33 -134 -1 -143 5 -152 100 -4 37 -12 73 -18 80 -21 25 -65 15 -128 -28 -159 -110 -211 -132 -211 -88 0 78 132 220 204 220 13 0 14 -9 10 -44 -4 -25 -2 -46 4 -50 47 -29 86 96 40 128 -24 17 -39 18 -78 7z"/>
</g>
</svg>